<svg width="108" height="80" viewBox="0 0 108 80" fill="none" xmlns="http://www.w3.org/2000/svg">
<path d="M11.6146 39.7595C5.20058 39.7595 0 45.0009 0 51.4652C0 57.9295 5.20058 63.1709 11.6146 63.1709H11.996L7.97422 77.3924H18.4794L22.5012 63.1359H26.4883L33.1797 66.8398V36.0557L26.4883 39.7595H11.6146Z" fill="#2C2C2C"/>
<path d="M51.2431 33.9243C51.2431 31.1289 48.9895 28.8577 46.2159 28.8577L38.623 33.0507H39.4205V70.2643L46.2159 74.0381C48.9895 74.0381 51.2431 71.7668 51.2431 68.9714V33.9243Z" fill="#2C2C2C"/>
<path d="M97.5169 40.9301C103.78 37.0343 107.939 30.0812 107.939 22.1417C107.939 9.9613 98.1041 0 85.9695 0C73.8838 0 64 9.91199 64 22.1417C64 30.0812 68.159 37.0343 74.422 40.9301L76.9664 42.3109C79.7065 43.5437 82.7401 44.2834 85.9205 44.2834C89.101 44.2834 92.1346 43.593 94.8747 42.3109L97.5169 40.9301ZM85.9695 41.6698C75.2539 41.6698 66.5933 32.892 66.5933 22.1417C66.5933 11.3421 75.3028 2.61361 85.9695 2.61361C96.6362 2.61361 105.346 11.3914 105.346 22.1417C105.346 32.892 96.6851 41.6698 85.9695 41.6698Z" fill="#FF6B00"/>
<path d="M85.9719 2.61365C75.2563 2.61365 66.5957 11.3914 66.5957 22.1417C66.5957 32.9414 75.3052 41.6698 85.9719 41.6698C96.6875 41.6698 105.348 32.892 105.348 22.1417C105.348 11.3914 96.6875 2.61365 85.9719 2.61365ZM97.1279 19.6268L92.4796 24.1636L93.556 30.5743C93.6539 31.0674 93.4582 31.5606 93.0667 31.8565C92.8221 32.0044 92.5774 32.103 92.3328 32.103C92.1371 32.103 91.9413 32.0537 91.7456 31.9551L86.0208 28.8977L80.296 31.9551C79.8557 32.1523 79.3664 32.1523 78.9749 31.8565C78.5835 31.5606 78.3878 31.0674 78.4856 30.5743L79.5621 24.1143L74.9138 19.5774C74.5713 19.2322 74.4245 18.7391 74.5713 18.246C74.718 17.8022 75.1095 17.4077 75.5988 17.3583L82.0086 16.4214L84.8954 10.5531C85.3358 9.66546 86.7548 9.66546 87.1951 10.5531L90.082 16.4214L96.4918 17.3583C96.9811 17.457 97.3725 17.7528 97.5193 18.246C97.6172 18.7391 97.5193 19.2816 97.1279 19.6268Z" fill="#FF6B00"/>
<path d="M86.018 46.5518C82.8376 46.5518 79.804 45.8614 77.0639 44.5793L74.5195 43.1985V64.7484C74.5195 65.2416 74.8131 65.6854 75.2535 65.9319C75.6938 66.1292 76.2321 66.0799 76.6235 65.784L86.067 58.1897L95.5104 65.784C95.7551 65.9813 95.9997 66.0799 96.3422 66.0799C96.5379 66.0799 96.7336 66.0306 96.8804 65.9319C97.3208 65.7347 97.6144 65.2416 97.6144 64.7484V43.1985L95.07 44.5793C92.2321 45.8121 89.1985 46.5518 86.018 46.5518Z" fill="#FF6B00"/>
<path d="M11.6146 39.7595C5.20058 39.7595 0 45.0009 0 51.4652C0 57.9295 5.20058 63.1709 11.6146 63.1709H11.996L7.97422 77.3924H18.4794L22.5012 63.1359H26.4883L33.1797 66.8398V36.0557L26.4883 39.7595H11.6146Z" fill="#2C2C2C"/>
<path d="M51.2431 33.9243C51.2431 31.1289 48.9895 28.8577 46.2159 28.8577L38.623 33.0507H39.4205V70.2643L46.2159 74.0381C48.9895 74.0381 51.2431 71.7668 51.2431 68.9714V33.9243Z" fill="#2C2C2C"/>
</svg>
