<svg width="108" height="80" viewBox="0 0 108 80" fill="none" xmlns="http://www.w3.org/2000/svg">
<g clip-path="url(#clip0_510_223)">
<path d="M47.8271 20H11.2082C10.4647 20 10 20.4647 10 21.2082V78.9247H12.2306V22.2306H40.7635L19.8518 29.1082C19.48 29.2012 19.1082 29.6659 19.1082 30.2235V70.0953C19.1082 70.8388 19.6659 71.1176 20.0377 71.3035L47.3624 80.3188C47.7341 80.4118 48.2918 80.5047 48.6635 80.2259C48.9424 80.04 49.0353 79.5753 49.0353 79.2035V21.2082C49.0353 20.4647 48.3847 20 47.8271 20ZM46.7118 77.7165L21.4318 69.3518V30.9671L46.7118 22.6953V77.7165Z" fill="#2C2C2C" stroke="#2C2C2C" stroke-width="2" stroke-miterlimit="10"/>
<path d="M21.5234 69.3517L46.8034 77.7164V22.7882L21.5234 30.967V69.3517ZM25.7987 48.347C25.7987 47.6964 26.2634 47.1388 26.914 47.1388C27.5646 47.1388 28.1223 47.6035 28.1223 48.347V51.8788C28.1223 52.6223 27.6576 53.087 26.914 53.087C26.2634 53.087 25.7987 52.5294 25.7987 51.8788V48.347Z" fill="#2C2C2C"/>
<path d="M80.1704 63.5895C90.1798 63.5895 98.2939 55.4753 98.2939 45.4659C98.2939 35.4566 90.1798 27.3424 80.1704 27.3424C70.1611 27.3424 62.0469 35.4566 62.0469 45.4659C62.0469 55.4753 70.1611 63.5895 80.1704 63.5895Z" fill="#FFCA41"/>
<path d="M88.7214 38.96C89.4649 39.7035 89.4649 40.8188 88.7214 41.5623L78.4979 51.8788C78.1261 52.2506 77.6614 52.4365 77.1967 52.4365C76.732 52.4365 76.2673 52.2506 75.8955 51.8788L70.5049 46.4882C69.7614 45.7447 69.7614 44.6294 70.5049 43.8859C70.8767 43.5141 71.3414 43.3282 71.8061 43.3282C72.2708 43.3282 72.7355 43.5141 73.1073 43.8859L76.8249 47.6035L77.1967 47.9753L77.5684 47.6035L86.119 38.96C86.8626 38.3094 88.0708 38.3094 88.7214 38.96Z" fill="#FCFCFC"/>
</g>
<defs>
<clipPath id="clip0_510_223">
<rect width="108" height="80" fill="white"/>
</clipPath>
</defs>
</svg>
