<svg width="108" height="80" viewBox="0 0 108 80" fill="none" xmlns="http://www.w3.org/2000/svg">
<g clip-path="url(#clip0_510_158)">
<path d="M53.349 48.4878C65.6791 48.4878 75.6746 38.5289 75.6746 26.2439C75.6746 13.9589 65.6791 4 53.349 4C41.0189 4 31.0234 13.9589 31.0234 26.2439C31.0234 38.5289 41.0189 48.4878 53.349 48.4878Z" fill="#01B9B3"/>
<path d="M64.2332 19.9415C64.9774 20.683 64.9774 21.9806 64.2332 22.722L52.8844 33.9366C52.5123 34.3074 52.0471 34.5854 51.489 34.5854C50.9309 34.5854 50.4658 34.4001 50.0937 34.0293L44.1402 28.0976C43.396 27.3562 43.396 26.0586 44.1402 25.3171C44.5123 24.9464 45.0704 24.761 45.5355 24.761C46.0006 24.761 46.5588 24.9464 46.9309 25.3171L51.0239 29.3952L51.489 29.8586L51.9541 29.3952L61.4425 19.9415C62.1867 19.1074 63.489 19.1074 64.2332 19.9415Z" fill="#F9F9F9"/>
<path d="M32.0461 65.0781C36.5113 65.0781 40.1392 61.3708 40.1392 56.8293C40.1392 52.2879 36.5113 48.5806 32.0461 48.5806C27.581 48.5806 23.9531 52.2879 23.9531 56.8293C23.9531 61.3708 27.581 65.0781 32.0461 65.0781Z" fill="#2C2C2C" stroke="#2C2C2C" stroke-width="2" stroke-miterlimit="10"/>
<path d="M32.046 50.8049C35.3018 50.8049 37.9995 53.4927 37.9995 56.8293C37.9995 60.1659 35.3018 62.8537 32.046 62.8537C28.7902 62.8537 26.1855 60.1659 26.1855 56.8293C26.1855 53.4927 28.7902 50.8049 32.046 50.8049Z" fill="#2C2C2C" stroke="#2C2C2C" stroke-width="2" stroke-miterlimit="10"/>
<path d="M37.256 70.1757C37.442 69.6196 36.7909 69.1562 36.3258 69.0635C36.0467 69.0635 35.6746 69.0635 35.3955 69.0635H28.8839C26.2793 69.0635 23.7676 70.083 21.9072 72.0293C20.0467 73.883 19.0234 76.3854 19.0234 79.0732H36.6048C36.5118 79.0732 35.6746 74.0684 37.256 70.1757Z" fill="#2C2C2C" stroke="#2C2C2C" stroke-width="2" stroke-miterlimit="10"/>
<path d="M84.0454 56.8293C84.0454 52.2879 80.4175 48.5806 75.9524 48.5806C71.4873 48.5806 67.8594 52.2879 67.8594 56.8293C67.8594 61.3708 71.4873 65.0781 75.9524 65.0781C80.4175 65.0781 84.0454 61.3708 84.0454 56.8293Z" fill="#2C2C2C" stroke="#2C2C2C" stroke-width="2" stroke-miterlimit="10"/>
<path d="M81.907 56.8293C81.907 60.1659 79.2093 62.8537 75.9535 62.8537C72.6977 62.8537 70 60.1659 70 56.8293C70 53.4927 72.6046 50.8049 75.9535 50.8049C79.2093 50.8049 81.907 53.4927 81.907 56.8293Z" fill="#2C2C2C" stroke="#2C2C2C" stroke-width="2" stroke-miterlimit="10"/>
<path d="M71.4875 79.0732H89.0688C89.0688 76.3854 88.0456 73.883 86.1851 72.0293C84.3247 70.1757 81.813 69.0635 79.2084 69.0635H72.6968C72.4177 69.0635 72.1386 69.0635 71.7665 69.0635C71.2084 69.0635 70.5572 69.6196 70.8363 70.1757C72.3247 74.0684 71.4875 79.0732 71.4875 79.0732Z" fill="#2C2C2C" stroke="#2C2C2C" stroke-width="2" stroke-miterlimit="10"/>
<path d="M63.3015 66.0976C61.5341 64.8928 59.4876 64.3367 57.441 64.3367H50.1852C46.8364 64.3367 43.7666 65.9123 41.7201 68.5074C40.2317 70.4537 39.3945 72.7708 39.3945 75.1806V79.0733H41.5341V75.1806C41.5341 70.3611 45.441 66.4684 50.0922 66.4684H57.348C62.0922 66.4684 65.9062 70.3611 65.9062 75.1806V79.0733H68.2317V75.1806C68.2317 71.4733 66.3713 68.1367 63.3015 66.0976Z" fill="#2C2C2C" stroke="#2C2C2C" stroke-width="2" stroke-miterlimit="10"/>
<path d="M53.8131 61.2781C59.5672 61.2781 64.2317 56.5476 64.2317 50.7122C64.2317 44.8769 59.5672 40.1464 53.8131 40.1464C48.0591 40.1464 43.3945 44.8769 43.3945 50.7122C43.3945 56.5476 48.0591 61.2781 53.8131 61.2781Z" fill="#2C2C2C" stroke="#2C2C2C" stroke-width="2" stroke-miterlimit="10"/>
<path d="M53.813 59.0537C58.334 59.0537 61.999 55.3191 61.999 50.7122C61.999 46.1053 58.334 42.3707 53.813 42.3707C49.292 42.3707 45.627 46.1053 45.627 50.7122C45.627 55.3191 49.292 59.0537 53.813 59.0537Z" fill="#2C2C2C" stroke="#2C2C2C" stroke-width="2" stroke-miterlimit="10"/>
<path d="M65.8147 67.0244H42.0938V79.9073H65.8147V67.0244Z" fill="#2C2C2C"/>
</g>
<defs>
<clipPath id="clip0_510_158">
<rect width="72" height="76" fill="white" transform="translate(18 4)"/>
</clipPath>
</defs>
</svg>
